<svg width="25" height="24" viewBox="0 0 25 24" fill="none" xmlns="http://www.w3.org/2000/svg">
<mask id="mask0_3984_2220" style="mask-type:alpha" maskUnits="userSpaceOnUse" x="0" y="0" width="25" height="24">
<rect x="0.5" width="24" height="24" fill="#D9D9D9"/>
</mask>
<g mask="url(#mask0_3984_2220)">
<path d="M8.5 12V14C8.5 15.1 8.89167 16.0417 9.675 16.825C10.4583 17.6083 11.4 18 12.5 18C13.6 18 14.5417 17.6083 15.325 16.825C16.1083 16.0417 16.5 15.1 16.5 14V13C16.5 12.7167 16.4042 12.4792 16.2125 12.2875C16.0208 12.0958 15.7833 12 15.5 12H8.5ZM12.5 16.5C11.8 16.5 11.2083 16.2583 10.725 15.775C10.2417 15.2917 10 14.7 10 14V13.5H15V14C15 14.7 14.7583 15.2917 14.275 15.775C13.7917 16.2583 13.2 16.5 12.5 16.5ZM9 7C8.43333 7 7.93333 7.18333 7.5 7.55C7.06667 7.91667 6.73333 8.36667 6.5 8.9C6.41667 9.08333 6.42917 9.25833 6.5375 9.425C6.64583 9.59167 6.8 9.7 7 9.75C7.18333 9.8 7.36667 9.77917 7.55 9.6875C7.73333 9.59583 7.86667 9.45833 7.95 9.275C8.06667 9.05833 8.2125 8.875 8.3875 8.725C8.5625 8.575 8.76667 8.5 9 8.5C9.23333 8.5 9.4375 8.57917 9.6125 8.7375C9.7875 8.89583 9.93333 9.08333 10.05 9.3C10.1333 9.48333 10.2667 9.61667 10.45 9.7C10.6333 9.78333 10.8167 9.8 11 9.75C11.2 9.7 11.3542 9.59167 11.4625 9.425C11.5708 9.25833 11.5833 9.08333 11.5 8.9C11.2667 8.36667 10.9333 7.91667 10.5 7.55C10.0667 7.18333 9.56667 7 9 7ZM16 7C15.4333 7 14.9333 7.18333 14.5 7.55C14.0667 7.91667 13.7333 8.36667 13.5 8.9C13.4167 9.08333 13.4292 9.25833 13.5375 9.425C13.6458 9.59167 13.8 9.7 14 9.75C14.1833 9.8 14.3667 9.77917 14.55 9.6875C14.7333 9.59583 14.8667 9.45833 14.95 9.275C15.0667 9.05833 15.2125 8.875 15.3875 8.725C15.5625 8.575 15.7667 8.5 16 8.5C16.2333 8.5 16.4375 8.57917 16.6125 8.7375C16.7875 8.89583 16.9333 9.08333 17.05 9.3C17.1333 9.48333 17.2667 9.61667 17.45 9.7C17.6333 9.78333 17.8167 9.8 18 9.75C18.2 9.7 18.3542 9.59167 18.4625 9.425C18.5708 9.25833 18.5833 9.08333 18.5 8.9C18.2667 8.36667 17.9333 7.91667 17.5 7.55C17.0667 7.18333 16.5667 7 16 7ZM12.5 22C11.1167 22 9.81667 21.7375 8.6 21.2125C7.38333 20.6875 6.325 19.975 5.425 19.075C4.525 18.175 3.8125 17.1167 3.2875 15.9C2.7625 14.6833 2.5 13.3833 2.5 12C2.5 10.6167 2.7625 9.31667 3.2875 8.1C3.8125 6.88333 4.525 5.825 5.425 4.925C6.325 4.025 7.38333 3.3125 8.6 2.7875C9.81667 2.2625 11.1167 2 12.5 2C13.8833 2 15.1833 2.2625 16.4 2.7875C17.6167 3.3125 18.675 4.025 19.575 4.925C20.475 5.825 21.1875 6.88333 21.7125 8.1C22.2375 9.31667 22.5 10.6167 22.5 12C22.5 13.3833 22.2375 14.6833 21.7125 15.9C21.1875 17.1167 20.475 18.175 19.575 19.075C18.675 19.975 17.6167 20.6875 16.4 21.2125C15.1833 21.7375 13.8833 22 12.5 22ZM12.5 20C14.7333 20 16.625 19.225 18.175 17.675C19.725 16.125 20.5 14.2333 20.5 12C20.5 9.76667 19.725 7.875 18.175 6.325C16.625 4.775 14.7333 4 12.5 4C10.2667 4 8.375 4.775 6.825 6.325C5.275 7.875 4.5 9.76667 4.5 12C4.5 14.2333 5.275 16.125 6.825 17.675C8.375 19.225 10.2667 20 12.5 20Z" fill="#1C1B1F"/>
</g>
</svg>
