
<svg width="66" height="24" viewBox="0 0 66 24" fill="none" xmlns="http://www.w3.org/2000/svg">
<path d="M6.39392 17.9453C6.26079 17.9453 6.14577 17.9036 6.04808 17.8197C5.95119 17.7359 5.90234 17.6421 5.90234 17.5374V6.37144C5.90234 6.2459 5.95119 6.14924 6.04808 6.08146C6.14538 6.01367 6.26039 5.97998 6.39392 5.97998C6.5373 5.97998 6.65704 6.01407 6.75473 6.08146C6.85163 6.14964 6.90047 6.2459 6.90047 6.37144V13.9934L10.6468 10.5905C10.7287 10.5275 10.8055 10.4963 10.8772 10.4963C10.9592 10.4963 11.0383 10.5199 11.1155 10.5668C11.1923 10.6142 11.2558 10.6715 11.307 10.7397C11.3582 10.8079 11.3842 10.8885 11.3842 10.9828C11.3842 11.0349 11.3763 11.085 11.3609 11.1316C11.3456 11.1789 11.3176 11.2234 11.2766 11.2651L9.01962 13.3039L11.6756 17.2558C11.7166 17.3184 11.7371 17.3914 11.7371 17.4752C11.7371 17.5482 11.7111 17.6268 11.6599 17.7106C11.6087 17.7945 11.5394 17.8623 11.4527 17.9144C11.3653 17.9665 11.281 17.9926 11.199 17.9926C11.0761 17.9926 10.9737 17.93 10.8922 17.8045L8.31297 13.9464L6.90008 15.2014V17.5378C6.90008 17.6425 6.85123 17.7363 6.75434 17.8201C6.65704 17.904 6.53691 17.9457 6.39353 17.9457L6.39392 17.9453Z" fill="#26BBB3"/>
<path d="M27.2489 8.33123C27.065 8.33123 26.9035 8.26626 26.7652 8.1351C26.6269 8.00435 26.5576 7.85033 26.5576 7.67264C26.5576 7.49496 26.6269 7.34335 26.7652 7.21781C26.9035 7.09227 27.0646 7.0293 27.2489 7.0293C27.4332 7.0293 27.5916 7.09227 27.7251 7.21781C27.8579 7.34335 27.9244 7.49456 27.9244 7.67264C27.9244 7.85073 27.8579 8.00435 27.7251 8.1351C27.592 8.26626 27.4336 8.33123 27.2489 8.33123ZM27.2335 17.945C27.1008 17.945 26.9854 17.9032 26.8881 17.8194C26.7908 17.7356 26.7424 17.6417 26.7424 17.537V10.9191C26.7424 10.7935 26.7908 10.6969 26.8881 10.6291C26.985 10.5609 27.1004 10.5268 27.2335 10.5268C27.3769 10.5268 27.4971 10.5609 27.5947 10.6291C27.6916 10.6973 27.7405 10.7935 27.7405 10.9191V17.537C27.7405 17.6417 27.6916 17.7356 27.5947 17.8194C27.4974 17.9032 27.3769 17.945 27.2335 17.945Z" fill="#26BBB3"/>
<path d="M31.2063 17.9451C31.0736 17.9451 30.9609 17.9086 30.8683 17.8352C30.7762 17.7622 30.7305 17.668 30.7305 17.5528V8.86444C30.7305 8.33139 30.8553 7.84808 31.1066 7.4141C31.3575 6.98012 31.69 6.63278 32.1048 6.37087C32.5191 6.10976 32.9725 5.979 33.4633 5.979H33.8474C33.9907 5.979 34.0983 6.02593 34.1696 6.11979C34.2409 6.21364 34.2771 6.32394 34.2771 6.44908C34.2771 6.56419 34.2412 6.66888 34.1696 6.76313C34.0979 6.85739 33.9903 6.90392 33.8474 6.90392H33.5862C33.2384 6.90392 32.9237 6.99336 32.642 7.17064C32.3604 7.34832 32.1406 7.57855 31.9819 7.86051C31.8231 8.14288 31.7384 8.45653 31.7286 8.80147V10.5266H33.9242C34.0372 10.5266 34.1243 10.5687 34.1853 10.6521C34.2468 10.7359 34.2775 10.835 34.2775 10.9497C34.2775 11.0544 34.2472 11.1515 34.1853 11.2397C34.1243 11.3287 34.0372 11.3733 33.9242 11.3733H31.7286V17.552C31.7286 17.6672 31.6774 17.7614 31.575 17.8344C31.4726 17.9074 31.3497 17.9443 31.2063 17.9443V17.9451Z" fill="#26BBB3"/>
<path d="M38.3859 18.0545C37.864 18.0545 37.3799 17.9157 36.9348 17.639C36.4897 17.3622 36.134 16.9956 35.8678 16.5408C35.6015 16.086 35.4688 15.5979 35.4688 15.0748V13.3806C35.4688 12.8584 35.5991 12.3719 35.8603 11.9223C36.121 11.473 36.4744 11.1125 36.9195 10.8401C37.3646 10.5686 37.8538 10.4326 38.3859 10.4326C38.9181 10.4326 39.3919 10.5658 39.837 10.8325C40.2821 11.0992 40.6374 11.4546 40.9041 11.899C41.17 12.3434 41.3031 12.8376 41.3031 13.3806V15.0748C41.3031 15.587 41.17 16.0731 40.9041 16.5332C40.6374 16.9936 40.2821 17.3618 39.837 17.639C39.3919 17.9157 38.9078 18.0545 38.3859 18.0545ZM38.3859 17.1136C38.744 17.1136 39.0666 17.0169 39.3529 16.8236C39.6393 16.6303 39.8697 16.3764 40.0438 16.0631C40.2179 15.7495 40.305 15.4202 40.305 15.0752V13.381C40.305 13.0361 40.2203 12.7124 40.0517 12.4088C39.8827 12.1056 39.6523 11.8573 39.3608 11.664C39.0689 11.4702 38.744 11.374 38.3859 11.374C38.0279 11.374 37.7049 11.4706 37.4185 11.664C37.1322 11.8577 36.9017 12.1056 36.728 12.4088C36.5535 12.712 36.4669 13.0357 36.4669 13.381V15.0752C36.4669 15.4202 36.5516 15.7495 36.7201 16.0631C36.8891 16.3768 37.1215 16.6307 37.4185 16.8236C37.7155 17.0173 38.0377 17.1136 38.3859 17.1136Z" fill="#26BBB3"/>
<path d="M43.9115 17.9451C43.7784 17.9451 43.6634 17.9034 43.5661 17.8196C43.4688 17.7357 43.4199 17.6419 43.4199 17.5372V10.9192C43.4199 10.7937 43.4688 10.697 43.5661 10.6292C43.663 10.5611 43.778 10.527 43.9115 10.527C44.045 10.527 44.1573 10.5611 44.2495 10.6292C44.3416 10.6974 44.3877 10.7937 44.3877 10.9192V11.6877C44.5 11.4683 44.654 11.2646 44.8482 11.0761C45.0424 10.8879 45.2724 10.7339 45.5391 10.6136C45.805 10.4937 46.1071 10.4331 46.445 10.4331H46.9823C47.0946 10.4331 47.1895 10.48 47.2663 10.5743C47.3431 10.6681 47.3813 10.778 47.3813 10.9036C47.3813 11.0392 47.3431 11.1519 47.2663 11.2405C47.1891 11.3295 47.0946 11.3741 46.9823 11.3741H46.445C46.1071 11.3741 45.7821 11.4679 45.4701 11.656C45.1578 11.8445 44.9041 12.1056 44.7099 12.4402C44.5153 12.7751 44.4181 13.183 44.4181 13.6635V17.5368C44.4181 17.6415 44.3696 17.7353 44.2723 17.8192C44.175 17.903 44.0549 17.9447 43.9115 17.9447V17.9451Z" fill="#26BBB3"/>
<path d="M49.5273 17.9451C49.3946 17.9451 49.2792 17.9034 49.1819 17.8196C49.0846 17.7357 49.0361 17.6419 49.0361 17.5372V10.9192C49.0361 10.7937 49.0846 10.697 49.1819 10.6292C49.2788 10.5611 49.3942 10.527 49.5273 10.527C49.6605 10.527 49.7731 10.5611 49.8653 10.6292C49.9578 10.6974 50.0035 10.7937 50.0035 10.9192V11.6251C50.1776 11.3219 50.436 11.0476 50.7791 10.8017C51.1218 10.5562 51.5441 10.4331 52.0459 10.4331C52.5477 10.4331 53.003 10.5795 53.3816 10.8723C53.7601 11.1651 54.0417 11.5413 54.2261 12.0014C54.4924 11.4683 54.8374 11.074 55.2624 10.8174C55.6874 10.5611 56.1195 10.4331 56.5599 10.4331C57.0003 10.4331 57.417 10.5482 57.8113 10.778C58.2048 11.0083 58.525 11.34 58.7708 11.7739C59.0162 12.2079 59.1391 12.7438 59.1391 13.3811V17.5372C59.1391 17.6419 59.0903 17.7357 58.9934 17.8196C58.8961 17.9034 58.7759 17.9451 58.6326 17.9451C58.4994 17.9451 58.3844 17.9034 58.2867 17.8196C58.1898 17.7357 58.141 17.6419 58.141 17.5372V13.3811C58.141 12.9319 58.0539 12.5605 57.8798 12.2677C57.7057 11.9749 57.4832 11.7531 57.2122 11.6011C56.9408 11.4495 56.667 11.3741 56.3909 11.3741C56.0939 11.3741 55.8099 11.4523 55.5389 11.6095C55.2675 11.7659 55.0422 11.9885 54.8634 12.2757C54.6838 12.5637 54.5948 12.9058 54.5948 13.3029V17.5528C54.5948 17.6888 54.5412 17.7883 54.4337 17.8513C54.3257 17.9138 54.2107 17.9451 54.0878 17.9451C53.9748 17.9451 53.8653 17.9138 53.7573 17.8513C53.6498 17.7883 53.5962 17.6892 53.5962 17.5528V13.3185C53.5962 12.9419 53.5143 12.6078 53.3508 12.315C53.1866 12.0222 52.9743 11.792 52.7135 11.6251C52.4524 11.4579 52.1629 11.3741 51.8458 11.3741C51.5488 11.3741 51.2624 11.4523 50.9863 11.6095C50.7098 11.7659 50.4817 11.9937 50.3029 12.2914C50.1237 12.5898 50.0343 12.9528 50.0343 13.3811V17.5372C50.0343 17.6419 49.9854 17.7357 49.8885 17.8196C49.7912 17.9034 49.6707 17.9451 49.5273 17.9451Z" fill="#26BBB3"/>
<path d="M21.7951 19.7516L21.1219 19.1227C20.9683 18.9791 20.7816 18.8756 20.5775 18.8339C20.0883 18.7336 19.5262 18.7753 19.2265 18.7753L16.6552 18.7661C15.5251 18.7661 14.6924 18.0313 14.6924 16.8457V14.0662C14.6924 12.8809 15.6086 11.9199 16.7387 11.9199H21.8416C22.9716 11.9199 24.1368 12.8809 24.1368 14.0662V19.3128C24.1699 20.2995 22.8566 20.9404 21.7943 19.7512L21.7951 19.7516Z" fill="#FFE5CE"/>
<path d="M22.8668 19.1205L21.8025 17.8984C21.6308 17.7476 21.4216 17.6469 21.1975 17.6136C20.923 17.5727 20.5846 17.547 20.3837 17.547H16.3963C15.2887 17.547 14.3906 16.6053 14.3906 15.4433V13.1018C14.3906 11.9398 15.2887 10.998 16.3963 10.998H21.398C22.5056 10.998 23.4037 11.9398 23.4037 13.1018V15.333L23.4238 18.5486C23.4238 18.5558 23.4013 19.1321 23.3986 19.2164C23.3852 19.5942 23.0011 19.2745 22.8668 19.1205Z" fill="white" stroke="#FAAF64" stroke-miterlimit="10"/>
</svg>
