
<svg width="21" height="20" viewBox="0 0 21 20" fill="none" xmlns="http://www.w3.org/2000/svg">
<path d="M10.5 9.5C11.5833 9.5 12.5167 9.86667 13.3 10.6C14.0833 11.3333 14.55 12.2417 14.7 13.325C14.7333 13.525 14.825 13.6875 14.975 13.8125C15.125 13.9375 15.3 14 15.5 14C15.7 14 15.8792 13.9333 16.0375 13.8C16.1958 13.6667 16.2583 13.5 16.225 13.3C16.0583 11.8 15.4375 10.5417 14.3625 9.525C13.2875 8.50833 12 8 10.5 8C9 8 7.7125 8.50833 6.6375 9.525C5.5625 10.5417 4.94167 11.8 4.775 13.3C4.74167 13.5 4.80417 13.6667 4.9625 13.8C5.12083 13.9333 5.3 14 5.5 14C5.7 14 5.875 13.9375 6.025 13.8125C6.175 13.6875 6.26667 13.525 6.3 13.325C6.45 12.2417 6.91667 11.3333 7.7 10.6C8.48333 9.86667 9.41667 9.5 10.5 9.5ZM9.05 5.525C9.2 5.39167 9.27083 5.22083 9.2625 5.0125C9.25417 4.80417 9.16667 4.63333 9 4.5C8.83333 4.36667 8.65 4.30833 8.45 4.325C8.25 4.34167 8.06667 4.41667 7.9 4.55C7.63333 4.78333 7.35417 4.97917 7.0625 5.1375C6.77083 5.29583 6.45833 5.43333 6.125 5.55C5.925 5.63333 5.7625 5.75833 5.6375 5.925C5.5125 6.09167 5.46667 6.28333 5.5 6.5C5.53333 6.71667 5.63333 6.88333 5.8 7C5.96667 7.11667 6.14167 7.14167 6.325 7.075C6.825 6.90833 7.30833 6.69583 7.775 6.4375C8.24167 6.17917 8.66667 5.875 9.05 5.525ZM11.95 5.525C12.3333 5.875 12.75 6.175 13.2 6.425C13.65 6.675 14.125 6.88333 14.625 7.05C14.825 7.11667 15.0125 7.09583 15.1875 6.9875C15.3625 6.87917 15.4667 6.71667 15.5 6.5C15.5333 6.28333 15.4833 6.09167 15.35 5.925C15.2167 5.75833 15.05 5.63333 14.85 5.55C14.5333 5.43333 14.2292 5.29167 13.9375 5.125C13.6458 4.95833 13.3667 4.76667 13.1 4.55C12.9333 4.41667 12.75 4.34167 12.55 4.325C12.35 4.30833 12.1667 4.36667 12 4.5C11.8333 4.63333 11.7458 4.80417 11.7375 5.0125C11.7292 5.22083 11.8 5.39167 11.95 5.525ZM10.5 20C9.11667 20 7.81667 19.7375 6.6 19.2125C5.38333 18.6875 4.325 17.975 3.425 17.075C2.525 16.175 1.8125 15.1167 1.2875 13.9C0.7625 12.6833 0.5 11.3833 0.5 10C0.5 8.61667 0.7625 7.31667 1.2875 6.1C1.8125 4.88333 2.525 3.825 3.425 2.925C4.325 2.025 5.38333 1.3125 6.6 0.7875C7.81667 0.2625 9.11667 0 10.5 0C11.8833 0 13.1833 0.2625 14.4 0.7875C15.6167 1.3125 16.675 2.025 17.575 2.925C18.475 3.825 19.1875 4.88333 19.7125 6.1C20.2375 7.31667 20.5 8.61667 20.5 10C20.5 11.3833 20.2375 12.6833 19.7125 13.9C19.1875 15.1167 18.475 16.175 17.575 17.075C16.675 17.975 15.6167 18.6875 14.4 19.2125C13.1833 19.7375 11.8833 20 10.5 20ZM10.5 18C12.7333 18 14.625 17.225 16.175 15.675C17.725 14.125 18.5 12.2333 18.5 10C18.5 7.76667 17.725 5.875 16.175 4.325C14.625 2.775 12.7333 2 10.5 2C8.26667 2 6.375 2.775 4.825 4.325C3.275 5.875 2.5 7.76667 2.5 10C2.5 12.2333 3.275 14.125 4.825 15.675C6.375 17.225 8.26667 18 10.5 18Z" fill="#1C1B1F"/>
</svg>
